<?xml version="1.0" encoding="UTF-8"?>
<svg version="1.1" xmlns="http://www.w3.org/2000/svg" width="128" height="128">
<path d="M0 0 C-0.0825 0.721875 -0.165 1.44375 -0.25 2.1875 C-0.2467361 5.16402261 -0.2467361 5.16402261 2 7.5 C4 10 4 10 4.25 12.8125 C4.1675 13.534375 4.085 14.25625 4 15 C0.79984144 16.06671952 -0.88544294 15.94845472 -4.1875 15.5625 C-5.775625 15.376875 -7.36375 15.19125 -9 15 C-9.33 19.95 -9.66 24.9 -10 30 C-5.05 30.99 -5.05 30.99 0 32 C0.495 34.475 0.495 34.475 1 37 C-1.31 38.65 -3.62 40.3 -6 42 C-5.04739717 45.81041134 -4.2725068 47.26914026 -1.9375 50.25 C-1.11572266 51.30960938 -1.11572266 51.30960938 -0.27734375 52.390625 C0.14417969 52.92171875 0.56570312 53.4528125 1 54 C3.53505344 53.45715072 4.88251486 53.09474608 6.9375 51.4375 C9.46833471 49.6735849 10.98037834 49.74836486 14 50 C15.49640828 54.48922485 14.54749697 58.31585924 14 63 C19.28 63.66 24.56 64.32 30 65 C24.5137881 71.58345428 24.5137881 71.58345428 21.375 73.375 C17.29508969 76.18659036 15.95102126 79.19773563 15 84 C14.74182607 87.09411531 14.56422533 90.16120323 14.50390625 93.265625 C13.8586637 96.76694116 12.74194239 97.77848789 10 100 C7.49804687 100.51757812 7.49804687 100.51757812 4.71875 100.53125 C3.71199219 100.53640625 2.70523438 100.5415625 1.66796875 100.546875 C0.62253906 100.53140625 -0.42289063 100.5159375 -1.5 100.5 C-3.06814453 100.52320312 -3.06814453 100.52320312 -4.66796875 100.546875 C-5.67472656 100.54171875 -6.68148437 100.5365625 -7.71875 100.53125 C-8.63591797 100.52673828 -9.55308594 100.52222656 -10.49804688 100.51757812 C-13.7577417 99.84324625 -14.96001893 98.58210261 -17 96 C-17.50390625 93.01171875 -17.50390625 93.01171875 -17.5625 89.6875 C-17.94891331 82.46817001 -17.94891331 82.46817001 -21 76 C-23.69527881 73.71139247 -26.47904642 71.55791501 -29.26953125 69.38671875 C-33.35786661 65.81308083 -35.70782256 61.87282619 -38 57 C-38.50660156 55.99259766 -38.50660156 55.99259766 -39.0234375 54.96484375 C-42.67484498 46.27181402 -42.60404081 34.06217168 -39.25 25.3125 C-37.48109714 21.64435406 -35.44646681 18.26195574 -33 15 C-32.29875 14.01 -31.5975 13.02 -30.875 12 C-23.43511397 3.35793727 -11.16828427 -0.74455228 0 0 Z M-19 15 C-26.40711356 21.59808416 -30.59301424 27.49390739 -31.9375 37.4375 C-32.45718678 46.75288552 -29.15629738 55.03085816 -23 62 C-19.13592493 65.23391229 -15.35550932 67.55637877 -10.5625 69.125 C-8 70 -8 70 -6.8125 71.6875 C-6.544375 72.450625 -6.27625 73.21375 -6 74 C-5.46400795 75.25244373 -4.92196704 76.5023102 -4.375 77.75 C-3.92125 78.8225 -3.4675 79.895 -3 81 C-2.01 81 -1.02 81 0 81 C-0.48000511 75.95994636 -1.76057675 72.90392033 -5 69 C-6.88969607 67.6298656 -8.83464875 66.45034571 -10.84765625 65.26953125 C-18.60489737 60.69402605 -24.09282603 55.72152191 -27 47 C-27.82188593 37.97099604 -27.47205255 30.47988579 -22 23 C-20.08819984 21.02551787 -18.26792263 19.5822716 -16 18 C-16.99 17.01 -17.98 16.02 -19 15 Z M-3 87 C-3 88.65 -3 90.3 -3 92 C-2.01 92 -1.02 92 0 92 C0 90.35 0 88.7 0 87 C-0.99 87 -1.98 87 -3 87 Z " fill="#000000" transform="translate(67,11)"/>
<path d="M0 0 C3.3 0.33 6.6 0.66 10 1 C9.86979167 3.50651042 9.73958333 6.01302083 9.609375 8.51953125 C9.7695649 11.13602346 9.7695649 11.13602346 11.859375 12.83203125 C13.96030672 14.22011351 13.96030672 14.22011351 16.5 13.875 C19.13343037 12.95329937 20.8857093 11.80106245 23 10 C26.36720387 11.39332574 27.9859524 12.9789286 30 16 C28.80929241 18.92264591 27.7076823 20.26512535 25.3125 22.4375 C22.72631558 24.75823178 22.72631558 24.75823178 22.875 27.6875 C23.81299786 30.177609 23.81299786 30.177609 26.25 31.25 C28.82455509 31.95215139 31.37000578 32.54914385 34 33 C33.505 37.95 33.505 37.95 33 43 C30.49348958 42.86979167 27.98697917 42.73958333 25.48046875 42.609375 C22.86397654 42.7695649 22.86397654 42.7695649 21.16796875 44.859375 C19.77988649 46.96030672 19.77988649 46.96030672 20.125 49.5 C21.04670063 52.13343037 22.19893755 53.8857093 24 56 C22.60667426 59.36720387 21.0210714 60.9859524 18 63 C15.07735409 61.80929241 13.73487465 60.7076823 11.5625 58.3125 C9.24250356 55.71320556 9.24250356 55.71320556 6.3125 55.9375 C3.93442414 56.80529764 3.93442414 56.80529764 2.75 58.6875 C1.85850524 61.4362755 1.39002962 64.13978281 1 67 C-2.3 66.67 -5.6 66.34 -9 66 C-8.86979167 63.49348958 -8.73958333 60.98697917 -8.609375 58.48046875 C-8.7695649 55.86397654 -8.7695649 55.86397654 -10.859375 54.16796875 C-12.96030672 52.77988649 -12.96030672 52.77988649 -15.5 53.125 C-18.13343037 54.04670063 -19.8857093 55.19893755 -22 57 C-25.36720387 55.60667426 -26.9859524 54.0210714 -29 51 C-27.80929241 48.07735409 -26.7076823 46.73487465 -24.3125 44.5625 C-21.71320556 42.24250356 -21.71320556 42.24250356 -21.9375 39.3125 C-22.80529764 36.93442414 -22.80529764 36.93442414 -24.6875 35.75 C-27.4362755 34.85850524 -30.13978281 34.39002962 -33 34 C-32.67 30.7 -32.34 27.4 -32 24 C-29.49348958 24.13020833 -26.98697917 24.26041667 -24.48046875 24.390625 C-21.86397654 24.2304351 -21.86397654 24.2304351 -20.16796875 22.140625 C-18.77988649 20.03969328 -18.77988649 20.03969328 -19.125 17.5 C-20.04670063 14.86656963 -21.19893755 13.1142907 -23 11 C-21.60667426 7.63279613 -20.0210714 6.0140476 -17 4 C-14.07735409 5.19070759 -12.73487465 6.2923177 -10.5625 8.6875 C-8.24250356 11.28679444 -8.24250356 11.28679444 -5.3125 11.0625 C-2.93442414 10.19470236 -2.93442414 10.19470236 -1.75 8.3125 C-0.85850524 5.5637245 -0.39002962 2.86021719 0 0 Z M-10.875 27.3125 C-12.35117243 30.83891192 -12.46618895 33.20389 -12 37 C-9.74665796 41.33976986 -7.54633071 44.09688482 -3 46 C1.26044487 46.54223844 3.42096006 46.30065535 7.25 44.3125 C11.21963737 40.97439585 12.77828086 38.74207896 13.4375 33.5625 C12.79673956 28.34487925 10.73597372 25.40754626 6.6875 22.125 C-0.59809864 19.07521452 -6.05642962 21.36959653 -10.875 27.3125 Z " fill="#000000" transform="translate(93,5)"/>
<path d="M0 0 C2 3 2 3 2.625 5.375 C2 8 2 8 0.28125 9.2578125 C-1.17163487 10.09480052 -2.62744006 10.92673721 -4.0859375 11.75390625 C-6.20025871 12.93606238 -6.20025871 12.93606238 -7.5 15.4375 C-8.42691928 20.1879613 -8.59891508 22.88772914 -6.25 27.25 C-3.08326621 31.12045242 -1.56190022 31.82645553 3.375 32.375 C7.64503895 31.93327183 9.69317056 30.67695717 13 28 C13.33 27.34 13.66 26.68 14 26 C19.01113235 27.4317521 20.94469549 29.98445693 24 34 C22.84826645 36.46800047 21.95216435 38.04783565 20 40 C17.57625852 39.66569083 15.62725116 38.8402505 13.375 37.875 C12.59125 37.58625 11.8075 37.2975 11 37 C10.01 37.495 10.01 37.495 9 38 C8.26924352 40.3140622 7.59861742 42.64828869 7 45 C4.69 45 2.38 45 0 45 C-0.99 41.535 -0.99 41.535 -2 38 C-3.79199472 37.21717352 -3.79199472 37.21717352 -6 37 C-6.66 37.495 -7.32 37.99 -8 38.5 C-10 40 -10 40 -12.125 39.8125 C-14 39 -14 39 -16 37 C-15.61121812 33.98694043 -14.73543126 32.60314689 -13 30 C-13.30840599 27.84725052 -13.30840599 27.84725052 -14 26 C-16.31 25.34 -18.62 24.68 -21 24 C-21 21.69 -21 19.38 -21 17 C-17.04 15.515 -17.04 15.515 -13 14 C-13.57452746 10.06924356 -13.57452746 10.06924356 -16 7 C-15.63318342 4.06546739 -15.13562754 3.13562754 -13 1 C-9.82719649 1.43762807 -6.94332389 2.77361505 -4 4 C-2.68 2.68 -1.36 1.36 0 0 Z " fill="#000000" transform="translate(24,57)"/>
<path d="M0 0 C6.27 0 12.54 0 19 0 C18 6 18 6 17 7 C14.5057035 7.15313272 12.05811507 7.23156517 9.5625 7.25 C8.52125977 7.2809375 8.52125977 7.2809375 7.45898438 7.3125 C5.44140625 7.328125 5.44140625 7.328125 2 7 C0 4 0 4 0 0 Z " fill="#000000" transform="translate(56,121)"/>
<path d="M0 0 C1.73152958 1.07955259 3.46011684 2.16382512 5.1875 3.25 C6.15042969 3.85328125 7.11335937 4.4565625 8.10546875 5.078125 C10.87405327 6.91637545 13.43957951 8.88425949 16 11 C15.67 12.32 15.34 13.64 15 15 C10.99653659 15 10.49294823 14.99477646 7.546875 12.8125 C6.928125 12.36132812 6.309375 11.91015625 5.671875 11.4453125 C5.03765625 10.96835937 4.4034375 10.49140625 3.75 10 C3.1003125 9.52304687 2.450625 9.04609375 1.78125 8.5546875 C0.18126336 7.37822673 -1.41021641 6.19021231 -3 5 C-2.01 3.35 -1.02 1.7 0 0 Z " fill="#000000" transform="translate(7,11)"/>
<path d="M0 0 C0 1.65 0 3.3 0 5 C-5.94 6.32 -11.88 7.64 -18 9 C-18.33 7.02 -18.66 5.04 -19 3 C-16.39816412 2.30238463 -13.79416398 1.61662226 -11.1875 0.9375 C-10.08051758 0.63875977 -10.08051758 0.63875977 -8.95117188 0.33398438 C-3.33984375 -1.11328125 -3.33984375 -1.11328125 0 0 Z " fill="#000000" transform="translate(20,34)"/>
<path d="M0 0 C1.2065625 0.0309375 1.2065625 0.0309375 2.4375 0.0625 C3.10876129 2.4988189 3.77466354 4.93638883 4.4375 7.375 C4.62828125 8.06529297 4.8190625 8.75558594 5.015625 9.46679688 C5.81466184 12.42037949 6.4375 14.98809219 6.4375 18.0625 C4.7875 18.3925 3.1375 18.7225 1.4375 19.0625 C-0.63844691 13.20832973 -2.73463713 7.24387612 -3.5625 1.0625 C-2.5625 0.0625 -2.5625 0.0625 0 0 Z " fill="#000000" transform="translate(26.5625,-0.0625)"/>
<path d="M0 0 C3.52238047 1.56367357 6.27123994 3.69495889 9.25 6.125 C10.14203125 6.84945312 11.0340625 7.57390625 11.953125 8.3203125 C12.62859375 8.87460938 13.3040625 9.42890625 14 10 C13.6875 11.9375 13.6875 11.9375 13 14 C12.01 14.33 11.02 14.66 10 15 C7.37109375 13.234375 7.37109375 13.234375 4.4375 10.75 C3.46683594 9.94046875 2.49617188 9.1309375 1.49609375 8.296875 C-1 6 -1 6 -3 3 C-2.01 2.01 -1.02 1.02 0 0 Z " fill="#000000" transform="translate(106,93)"/>
<path d="M0 0 C5.28 0 10.56 0 16 0 C16 1.98 16 3.96 16 6 C10.72 6 5.44 6 0 6 C0 4.02 0 2.04 0 0 Z " fill="#000000" transform="translate(107,81)"/>
<path d="M0 0 C6.27 0 12.54 0 19 0 C19 1.65 19 3.3 19 5 C12.73 5 6.46 5 0 5 C0 3.35 0 1.7 0 0 Z " fill="#000000" transform="translate(56,112)"/>
<path d="M0 0 C1.65 0 3.3 0 5 0 C5 5.28 5 10.56 5 16 C3.35 16 1.7 16 0 16 C0 10.72 0 5.44 0 0 Z " fill="#000000" transform="translate(94,99)"/>
<path d="M0 0 C1.32 0 2.64 0 4 0 C3.46939601 4.51013391 1.69113883 7.38378219 -1 11 C-1.33 11 -1.66 11 -2 11 C-1.85957123 9.35369672 -1.71250671 7.70795821 -1.5625 6.0625 C-1.48128906 5.14597656 -1.40007812 4.22945313 -1.31640625 3.28515625 C-1 1 -1 1 0 0 Z " fill="#000000" transform="translate(99,64)"/>
</svg>
